<mxfile host="app.diagrams.net" modified="2024-02-25T21:01:24.698Z" agent="Mozilla/5.0 (Windows NT 10.0; Win64; x64) AppleWebKit/537.36 (KHTML, like Gecko) Chrome/120.0.0.0 Safari/537.36 OPR/106.0.0.0" etag="_ozp_rso-im6INEUaYtH" version="22.1.21" type="github">
  <diagram name="Page-1" id="2Y-_Gha7-7skGQ87RIqz">
    <mxGraphModel dx="1691" dy="1106" grid="1" gridSize="10" guides="1" tooltips="1" connect="1" arrows="1" fold="1" page="1" pageScale="1" pageWidth="850" pageHeight="1100" math="0" shadow="0">
      <root>
        <mxCell id="0" />
        <mxCell id="1" parent="0" />
        <mxCell id="ju9vM5F5lksIPo_pIoAa-4" value="" style="edgeStyle=orthogonalEdgeStyle;rounded=0;orthogonalLoop=1;jettySize=auto;html=1;" edge="1" parent="1" source="ju9vM5F5lksIPo_pIoAa-2" target="ju9vM5F5lksIPo_pIoAa-3">
          <mxGeometry relative="1" as="geometry" />
        </mxCell>
        <mxCell id="ju9vM5F5lksIPo_pIoAa-5" value="Yes" style="edgeLabel;html=1;align=center;verticalAlign=middle;resizable=0;points=[];" vertex="1" connectable="0" parent="ju9vM5F5lksIPo_pIoAa-4">
          <mxGeometry x="-0.1167" y="-2" relative="1" as="geometry">
            <mxPoint as="offset" />
          </mxGeometry>
        </mxCell>
        <mxCell id="ju9vM5F5lksIPo_pIoAa-7" value="" style="edgeStyle=orthogonalEdgeStyle;rounded=0;orthogonalLoop=1;jettySize=auto;html=1;" edge="1" parent="1" source="ju9vM5F5lksIPo_pIoAa-2" target="ju9vM5F5lksIPo_pIoAa-6">
          <mxGeometry relative="1" as="geometry" />
        </mxCell>
        <mxCell id="ju9vM5F5lksIPo_pIoAa-8" value="No" style="edgeLabel;html=1;align=center;verticalAlign=middle;resizable=0;points=[];" vertex="1" connectable="0" parent="ju9vM5F5lksIPo_pIoAa-7">
          <mxGeometry x="-0.0809" y="-3" relative="1" as="geometry">
            <mxPoint as="offset" />
          </mxGeometry>
        </mxCell>
        <mxCell id="ju9vM5F5lksIPo_pIoAa-2" value="Ask user if they want to play a game of blackjack" style="rhombus;whiteSpace=wrap;html=1;" vertex="1" parent="1">
          <mxGeometry x="348" y="70" width="155" height="160" as="geometry" />
        </mxCell>
        <mxCell id="ju9vM5F5lksIPo_pIoAa-10" value="" style="edgeStyle=orthogonalEdgeStyle;rounded=0;orthogonalLoop=1;jettySize=auto;html=1;" edge="1" parent="1" source="ju9vM5F5lksIPo_pIoAa-3" target="ju9vM5F5lksIPo_pIoAa-9">
          <mxGeometry relative="1" as="geometry" />
        </mxCell>
        <mxCell id="ju9vM5F5lksIPo_pIoAa-3" value="Give player 2 cards and give play score" style="ellipse;whiteSpace=wrap;html=1;" vertex="1" parent="1">
          <mxGeometry x="385.5" y="350" width="80" height="80" as="geometry" />
        </mxCell>
        <mxCell id="ju9vM5F5lksIPo_pIoAa-6" value="End code" style="ellipse;whiteSpace=wrap;html=1;" vertex="1" parent="1">
          <mxGeometry x="150.5" y="110" width="80" height="80" as="geometry" />
        </mxCell>
        <mxCell id="ju9vM5F5lksIPo_pIoAa-12" value="" style="edgeStyle=orthogonalEdgeStyle;rounded=0;orthogonalLoop=1;jettySize=auto;html=1;" edge="1" parent="1" source="ju9vM5F5lksIPo_pIoAa-9" target="ju9vM5F5lksIPo_pIoAa-11">
          <mxGeometry relative="1" as="geometry" />
        </mxCell>
        <mxCell id="ju9vM5F5lksIPo_pIoAa-9" value="Give player the computer first card" style="ellipse;whiteSpace=wrap;html=1;" vertex="1" parent="1">
          <mxGeometry x="385.5" y="510" width="80" height="80" as="geometry" />
        </mxCell>
        <mxCell id="ju9vM5F5lksIPo_pIoAa-28" style="edgeStyle=orthogonalEdgeStyle;rounded=0;orthogonalLoop=1;jettySize=auto;html=1;entryX=0;entryY=0.5;entryDx=0;entryDy=0;" edge="1" parent="1" source="ju9vM5F5lksIPo_pIoAa-11" target="ju9vM5F5lksIPo_pIoAa-15">
          <mxGeometry relative="1" as="geometry" />
        </mxCell>
        <mxCell id="ju9vM5F5lksIPo_pIoAa-31" value="Yes" style="edgeLabel;html=1;align=center;verticalAlign=middle;resizable=0;points=[];" vertex="1" connectable="0" parent="ju9vM5F5lksIPo_pIoAa-28">
          <mxGeometry x="0.1073" y="2" relative="1" as="geometry">
            <mxPoint as="offset" />
          </mxGeometry>
        </mxCell>
        <mxCell id="ju9vM5F5lksIPo_pIoAa-32" style="edgeStyle=orthogonalEdgeStyle;rounded=0;orthogonalLoop=1;jettySize=auto;html=1;" edge="1" parent="1" source="ju9vM5F5lksIPo_pIoAa-11" target="ju9vM5F5lksIPo_pIoAa-34">
          <mxGeometry relative="1" as="geometry">
            <mxPoint x="290" y="710" as="targetPoint" />
          </mxGeometry>
        </mxCell>
        <mxCell id="ju9vM5F5lksIPo_pIoAa-33" value="No" style="edgeLabel;html=1;align=center;verticalAlign=middle;resizable=0;points=[];" vertex="1" connectable="0" parent="ju9vM5F5lksIPo_pIoAa-32">
          <mxGeometry x="-0.1563" y="1" relative="1" as="geometry">
            <mxPoint as="offset" />
          </mxGeometry>
        </mxCell>
        <mxCell id="ju9vM5F5lksIPo_pIoAa-11" value="Ask player if they want another card" style="rhombus;whiteSpace=wrap;html=1;" vertex="1" parent="1">
          <mxGeometry x="385.5" y="670" width="80" height="80" as="geometry" />
        </mxCell>
        <mxCell id="ju9vM5F5lksIPo_pIoAa-18" value="" style="edgeStyle=orthogonalEdgeStyle;rounded=0;orthogonalLoop=1;jettySize=auto;html=1;" edge="1" parent="1" source="ju9vM5F5lksIPo_pIoAa-15" target="ju9vM5F5lksIPo_pIoAa-17">
          <mxGeometry relative="1" as="geometry" />
        </mxCell>
        <mxCell id="ju9vM5F5lksIPo_pIoAa-15" value="Give play another card and provide new total" style="ellipse;whiteSpace=wrap;html=1;" vertex="1" parent="1">
          <mxGeometry x="610" y="590" width="80" height="80" as="geometry" />
        </mxCell>
        <mxCell id="ju9vM5F5lksIPo_pIoAa-22" value="" style="edgeStyle=orthogonalEdgeStyle;rounded=0;orthogonalLoop=1;jettySize=auto;html=1;" edge="1" parent="1" source="ju9vM5F5lksIPo_pIoAa-17" target="ju9vM5F5lksIPo_pIoAa-21">
          <mxGeometry relative="1" as="geometry" />
        </mxCell>
        <mxCell id="ju9vM5F5lksIPo_pIoAa-23" value="Over" style="edgeLabel;html=1;align=center;verticalAlign=middle;resizable=0;points=[];" vertex="1" connectable="0" parent="ju9vM5F5lksIPo_pIoAa-22">
          <mxGeometry x="-0.1125" y="4" relative="1" as="geometry">
            <mxPoint x="-1" y="-4" as="offset" />
          </mxGeometry>
        </mxCell>
        <mxCell id="ju9vM5F5lksIPo_pIoAa-26" value="" style="edgeStyle=orthogonalEdgeStyle;rounded=0;orthogonalLoop=1;jettySize=auto;html=1;" edge="1" parent="1" source="ju9vM5F5lksIPo_pIoAa-17" target="ju9vM5F5lksIPo_pIoAa-25">
          <mxGeometry relative="1" as="geometry" />
        </mxCell>
        <mxCell id="ju9vM5F5lksIPo_pIoAa-27" value="Is 21" style="edgeLabel;html=1;align=center;verticalAlign=middle;resizable=0;points=[];" vertex="1" connectable="0" parent="ju9vM5F5lksIPo_pIoAa-26">
          <mxGeometry x="-0.325" y="-1" relative="1" as="geometry">
            <mxPoint as="offset" />
          </mxGeometry>
        </mxCell>
        <mxCell id="ju9vM5F5lksIPo_pIoAa-29" style="edgeStyle=orthogonalEdgeStyle;rounded=0;orthogonalLoop=1;jettySize=auto;html=1;entryX=0.5;entryY=1;entryDx=0;entryDy=0;" edge="1" parent="1" source="ju9vM5F5lksIPo_pIoAa-17" target="ju9vM5F5lksIPo_pIoAa-11">
          <mxGeometry relative="1" as="geometry" />
        </mxCell>
        <mxCell id="ju9vM5F5lksIPo_pIoAa-30" value="No" style="edgeLabel;html=1;align=center;verticalAlign=middle;resizable=0;points=[];" vertex="1" connectable="0" parent="ju9vM5F5lksIPo_pIoAa-29">
          <mxGeometry x="-0.6437" y="-1" relative="1" as="geometry">
            <mxPoint as="offset" />
          </mxGeometry>
        </mxCell>
        <mxCell id="ju9vM5F5lksIPo_pIoAa-17" value="Is total 21 or over?" style="rhombus;whiteSpace=wrap;html=1;" vertex="1" parent="1">
          <mxGeometry x="610" y="750" width="80" height="80" as="geometry" />
        </mxCell>
        <mxCell id="ju9vM5F5lksIPo_pIoAa-51" style="edgeStyle=orthogonalEdgeStyle;rounded=0;orthogonalLoop=1;jettySize=auto;html=1;entryX=0.5;entryY=0;entryDx=0;entryDy=0;" edge="1" parent="1" source="ju9vM5F5lksIPo_pIoAa-21" target="ju9vM5F5lksIPo_pIoAa-2">
          <mxGeometry relative="1" as="geometry">
            <Array as="points">
              <mxPoint x="790" y="50" />
              <mxPoint x="426" y="50" />
            </Array>
          </mxGeometry>
        </mxCell>
        <mxCell id="ju9vM5F5lksIPo_pIoAa-21" value="You Lose" style="ellipse;whiteSpace=wrap;html=1;" vertex="1" parent="1">
          <mxGeometry x="750" y="750" width="80" height="80" as="geometry" />
        </mxCell>
        <mxCell id="ju9vM5F5lksIPo_pIoAa-53" style="edgeStyle=orthogonalEdgeStyle;rounded=0;orthogonalLoop=1;jettySize=auto;html=1;entryX=0.5;entryY=0;entryDx=0;entryDy=0;" edge="1" parent="1">
          <mxGeometry relative="1" as="geometry">
            <mxPoint x="609.5" y="950" as="sourcePoint" />
            <mxPoint x="425" y="70" as="targetPoint" />
            <Array as="points">
              <mxPoint x="650" y="950" />
              <mxPoint x="650" y="1030" />
              <mxPoint x="840" y="1030" />
              <mxPoint x="840" y="30" />
              <mxPoint x="425" y="30" />
            </Array>
          </mxGeometry>
        </mxCell>
        <mxCell id="ju9vM5F5lksIPo_pIoAa-25" value="You Win" style="ellipse;whiteSpace=wrap;html=1;" vertex="1" parent="1">
          <mxGeometry x="610" y="910" width="80" height="80" as="geometry" />
        </mxCell>
        <mxCell id="ju9vM5F5lksIPo_pIoAa-36" value="" style="edgeStyle=orthogonalEdgeStyle;rounded=0;orthogonalLoop=1;jettySize=auto;html=1;" edge="1" parent="1" source="ju9vM5F5lksIPo_pIoAa-34" target="ju9vM5F5lksIPo_pIoAa-35">
          <mxGeometry relative="1" as="geometry" />
        </mxCell>
        <mxCell id="ju9vM5F5lksIPo_pIoAa-34" value="Give Computer 2nd card" style="ellipse;whiteSpace=wrap;html=1;aspect=fixed;" vertex="1" parent="1">
          <mxGeometry x="160" y="590" width="80" height="80" as="geometry" />
        </mxCell>
        <mxCell id="ju9vM5F5lksIPo_pIoAa-37" style="edgeStyle=orthogonalEdgeStyle;rounded=0;orthogonalLoop=1;jettySize=auto;html=1;entryX=0;entryY=0.5;entryDx=0;entryDy=0;" edge="1" parent="1" source="ju9vM5F5lksIPo_pIoAa-35" target="ju9vM5F5lksIPo_pIoAa-34">
          <mxGeometry relative="1" as="geometry">
            <mxPoint x="80" y="640" as="targetPoint" />
            <Array as="points">
              <mxPoint x="140" y="790" />
              <mxPoint x="140" y="630" />
            </Array>
          </mxGeometry>
        </mxCell>
        <mxCell id="ju9vM5F5lksIPo_pIoAa-38" value="Yes" style="edgeLabel;html=1;align=center;verticalAlign=middle;resizable=0;points=[];" vertex="1" connectable="0" parent="ju9vM5F5lksIPo_pIoAa-37">
          <mxGeometry x="0.01" y="3" relative="1" as="geometry">
            <mxPoint x="3" y="1" as="offset" />
          </mxGeometry>
        </mxCell>
        <mxCell id="ju9vM5F5lksIPo_pIoAa-42" value="" style="edgeStyle=orthogonalEdgeStyle;rounded=0;orthogonalLoop=1;jettySize=auto;html=1;" edge="1" parent="1" source="ju9vM5F5lksIPo_pIoAa-35" target="ju9vM5F5lksIPo_pIoAa-41">
          <mxGeometry relative="1" as="geometry" />
        </mxCell>
        <mxCell id="ju9vM5F5lksIPo_pIoAa-43" value="Yes" style="edgeLabel;html=1;align=center;verticalAlign=middle;resizable=0;points=[];" vertex="1" connectable="0" parent="ju9vM5F5lksIPo_pIoAa-42">
          <mxGeometry x="-0.3" y="-2" relative="1" as="geometry">
            <mxPoint as="offset" />
          </mxGeometry>
        </mxCell>
        <mxCell id="ju9vM5F5lksIPo_pIoAa-35" value="Is the computer under the players count?" style="rhombus;whiteSpace=wrap;html=1;" vertex="1" parent="1">
          <mxGeometry x="160" y="750" width="80" height="80" as="geometry" />
        </mxCell>
        <mxCell id="ju9vM5F5lksIPo_pIoAa-45" value="" style="edgeStyle=orthogonalEdgeStyle;rounded=0;orthogonalLoop=1;jettySize=auto;html=1;" edge="1" parent="1" source="ju9vM5F5lksIPo_pIoAa-41">
          <mxGeometry relative="1" as="geometry">
            <mxPoint x="100" y="950" as="targetPoint" />
          </mxGeometry>
        </mxCell>
        <mxCell id="ju9vM5F5lksIPo_pIoAa-49" value="No" style="edgeLabel;html=1;align=center;verticalAlign=middle;resizable=0;points=[];" vertex="1" connectable="0" parent="ju9vM5F5lksIPo_pIoAa-45">
          <mxGeometry x="0.1" relative="1" as="geometry">
            <mxPoint as="offset" />
          </mxGeometry>
        </mxCell>
        <mxCell id="ju9vM5F5lksIPo_pIoAa-47" value="" style="edgeStyle=orthogonalEdgeStyle;rounded=0;orthogonalLoop=1;jettySize=auto;html=1;" edge="1" parent="1" source="ju9vM5F5lksIPo_pIoAa-41" target="ju9vM5F5lksIPo_pIoAa-46">
          <mxGeometry relative="1" as="geometry" />
        </mxCell>
        <mxCell id="ju9vM5F5lksIPo_pIoAa-48" value="Yes" style="edgeLabel;html=1;align=center;verticalAlign=middle;resizable=0;points=[];" vertex="1" connectable="0" parent="ju9vM5F5lksIPo_pIoAa-47">
          <mxGeometry x="0.025" y="-1" relative="1" as="geometry">
            <mxPoint as="offset" />
          </mxGeometry>
        </mxCell>
        <mxCell id="ju9vM5F5lksIPo_pIoAa-41" value="Is the computer over 21?" style="rhombus;whiteSpace=wrap;html=1;" vertex="1" parent="1">
          <mxGeometry x="160" y="910" width="80" height="80" as="geometry" />
        </mxCell>
        <mxCell id="ju9vM5F5lksIPo_pIoAa-50" style="edgeStyle=orthogonalEdgeStyle;rounded=0;orthogonalLoop=1;jettySize=auto;html=1;entryX=0.5;entryY=0;entryDx=0;entryDy=0;" edge="1" parent="1" target="ju9vM5F5lksIPo_pIoAa-2">
          <mxGeometry relative="1" as="geometry">
            <mxPoint x="60" y="910" as="sourcePoint" />
            <Array as="points">
              <mxPoint x="60" y="50" />
              <mxPoint x="426" y="50" />
            </Array>
          </mxGeometry>
        </mxCell>
        <mxCell id="ju9vM5F5lksIPo_pIoAa-44" value="You Lose" style="ellipse;whiteSpace=wrap;html=1;" vertex="1" parent="1">
          <mxGeometry x="20" y="910" width="80" height="80" as="geometry" />
        </mxCell>
        <mxCell id="ju9vM5F5lksIPo_pIoAa-52" style="edgeStyle=orthogonalEdgeStyle;rounded=0;orthogonalLoop=1;jettySize=auto;html=1;entryX=0.5;entryY=0;entryDx=0;entryDy=0;" edge="1" parent="1" source="ju9vM5F5lksIPo_pIoAa-46" target="ju9vM5F5lksIPo_pIoAa-2">
          <mxGeometry relative="1" as="geometry">
            <Array as="points">
              <mxPoint x="360" y="1040" />
              <mxPoint x="10" y="1040" />
              <mxPoint x="10" y="30" />
              <mxPoint x="426" y="30" />
            </Array>
          </mxGeometry>
        </mxCell>
        <mxCell id="ju9vM5F5lksIPo_pIoAa-46" value="You Win" style="ellipse;whiteSpace=wrap;html=1;" vertex="1" parent="1">
          <mxGeometry x="320" y="910" width="80" height="80" as="geometry" />
        </mxCell>
      </root>
    </mxGraphModel>
  </diagram>
</mxfile>
